{"title":"Darkening Sky 2010 DVDRip Xvid BigPerm LKRG","uid":6885398,"size":696294985,"categoryP":"video","categoryS":"movies","magnet":"?xt=urn:btih:f14cdcfc14067d2ce149d51332158a47512bf184&amp;dn=Darkening+Sky+2010+DVDRip+Xvid+BigPerm+LKRG&amp;tr=udp%3A%2F%2Ftracker.openbittorrent.com%3A80&amp;tr=udp%3A%2F%2Fopen.demonii.com%3A1337&amp;tr=udp%3A%2F%2Ftracker.coppersurfer.tk%3A6969&amp;tr=udp%3A%2F%2Fexodus.desync.com%3A6969","seeders":0,"leechers":2,"uploader":".BONE.","files":2,"time":1323806905,"description":"PLOT\n\nWhen an alien abduction nightmare is revealed to have been much more than a dream, a skeptical\ngrad student studying the &quot;modern mythology&quot; of UFOs and ETs finds himself confronting an\nimpossible reality involving shape-shifting extraterrestrials, implanted objects, organ\nharvesting and humans possessed by a malevolent alien presence unlike anything he has ever\nheard about.\n\nEncoded By .......: BigPerm\nRuntime ..........: 1h 23mn\nFile Size ........: 664 MB\nResolution .......: 640 x 352 &lt;a href=&quot;\nhttp://www.imdb.com/title/tt1502402/&quot; rel=&quot;nofollow&quot; target=&quot;_NEW&quot;&gt;\nhttp://www.imdb.com/title/tt1502402/&lt;/a&gt;\nRatings ..........: Ratings: 5.7/10 from 29 users\nGenre ............: Horror,Thriller\nLanguage .........: English\nSubtitles ........: None\nVideo\nID : 0\nFormat : MPEG-4 Visual\nFormat profile : Advanced Simple@L5\nFormat settings, BVOP : Yes\nFormat settings, QPel : No\nFormat settings, GMC : No warppoints\nFormat settings, Matrix : Default (H.263)\nMuxing mode : Packed bitstream\nCodec ID : XVID\nCodec ID/Hint : XviD\nDuration : 1h 23mn\nBit rate : 874 Kbps\nWidth : 640 pixels\nHeight : 352 pixels\nDisplay aspect ratio : 16:9\nFrame rate : 23.976 fps\nColor space : YUV\nChroma subsampling : 4:2:0\nBit depth : 8 bits\nScan type : Progressive\nCompression mode : Lossy\nBits/(Pixel*Frame) : 0.162\nStream size : 524 MiB (79%)\nWriting library : XviD 64\n\nAudio\nID : 1\nFormat : AC-3\nFormat/Info : Audio Coding 3\nMode extension : CM (complete main)\nCodec ID : 2000\nDuration : 1h 23mn\nBit rate mode : Constant\nBit rate : 224 Kbps\nChannel(s) : 2 channels\nChannel positions : Front: L R\nSampling rate : 48.0 KHz\nBit depth : 16 bits\nCompression mode : Lossy\nStream size : 134 MiB (20%)\nAlignment : Split accross interleaves\nInterleave, duration : 42 ms (1.00 video frame)\nInterleave, preload duration : 500 ms\n &lt;a href=&quot;\nhttp://www.shotpix.com/images/20519363489118053836.png&quot; rel=&quot;nofollow&quot; target=&quot;_NEW&quot;&gt;\nhttp://www.shotpix.com/images/20519363489118053836.png&lt;/a&gt;\n &lt;a href=&quot;\nhttp://www.shotpix.com/images/12320765173284447266.png&quot; rel=&quot;nofollow&quot; target=&quot;_NEW&quot;&gt;\nhttp://www.shotpix.com/images/12320765173284447266.png&lt;/a&gt;\n &lt;a href=&quot;\nhttp://www.shotpix.com/images/60264306706315145591.png&quot; rel=&quot;nofollow&quot; target=&quot;_NEW&quot;&gt;\nhttp://www.shotpix.com/images/60264306706315145591.png&lt;/a&gt;\n &lt;a href=&quot;\nhttp://www.shotpix.com/images/43488565432047481700.png&quot; rel=&quot;nofollow&quot; target=&quot;_NEW&quot;&gt;\nhttp://www.shotpix.com/images/43488565432047481700.png&lt;/a&gt;\n &lt;a href=&quot;\nhttp://www.shotpix.com/images/25677199778202562311.png&quot; rel=&quot;nofollow&quot; target=&quot;_NEW&quot;&gt;\nhttp://www.shotpix.com/images/25677199778202562311.png&lt;/a&gt;","torrent":{"xt":"urn:btih:f14cdcfc14067d2ce149d51332158a47512bf184","amp;dn":"Darkening+Sky+2010+DVDRip+Xvid+BigPerm+LKRG","amp;tr":["udp%3A%2F%2Ftracker.openbittorrent.com%3A80","udp%3A%2F%2Fopen.demonii.com%3A1337","udp%3A%2F%2Ftracker.coppersurfer.tk%3A6969","udp%3A%2F%2Fexodus.desync.com%3A6969"],"infoHash":"f14cdcfc14067d2ce149d51332158a47512bf184","infoHashBuffer":{"type":"Buffer","data":[241,76,220,252,20,6,125,44,225,73,213,19,50,21,138,71,81,43,241,132]},"announce":[],"urlList":[]}}